<svg width="24" height="24" viewBox="0 0 24 24" fill="none" xmlns="http://www.w3.org/2000/svg">
<path d="M13.9707 8.29688L15.385 7.05647H23.4841V0.515625H13.9707V8.29688Z" stroke="#33CCCC" stroke-width="1.03125" stroke-miterlimit="10" stroke-linecap="round" stroke-linejoin="round"/>
<path d="M23.4842 3.91116L22.8196 3.22552C22.09 2.47289 20.9212 2.36306 20.0642 2.96663L18.5782 4.01316C17.9956 4.42345 17.2022 4.35516 16.6984 3.85125C16.1261 3.279 15.1984 3.279 14.6261 3.85125L13.9708 4.50656M10.7812 7.54688V10.3594" stroke="#33CCCC" stroke-width="1.03125" stroke-miterlimit="10" stroke-linejoin="round"/>
<path d="M11.8125 18.543C11.243 19.1125 10.3195 19.1125 9.75 18.543" stroke="#33CCCC" stroke-width="1.03125" stroke-miterlimit="10" stroke-linecap="round" stroke-linejoin="round"/>
<path d="M8.10938 16.938C8.67892 16.938 9.14062 16.4763 9.14062 15.9067C9.14062 15.3372 8.67892 14.8755 8.10938 14.8755C7.53983 14.8755 7.07812 15.3372 7.07812 15.9067C7.07812 16.4763 7.53983 16.938 8.10938 16.938Z" stroke="#33CCCC" stroke-width="1.03125" stroke-miterlimit="10" stroke-linejoin="round"/>
<path d="M13.4531 16.938C14.0227 16.938 14.4844 16.4763 14.4844 15.9067C14.4844 15.3372 14.0227 14.8755 13.4531 14.8755C12.8836 14.8755 12.4219 15.3372 12.4219 15.9067C12.4219 16.4763 12.8836 16.938 13.4531 16.938Z" stroke="#33CCCC" stroke-width="1.03125" stroke-miterlimit="10" stroke-linejoin="round"/>
<path d="M10.7812 7.54688C11.4026 7.54688 11.9062 7.0432 11.9062 6.42188C11.9062 5.80055 11.4026 5.29688 10.7812 5.29688C10.1599 5.29688 9.65625 5.80055 9.65625 6.42188C9.65625 7.0432 10.1599 7.54688 10.7812 7.54688Z" stroke="black" stroke-width="1.03125" stroke-miterlimit="10" stroke-linecap="round" stroke-linejoin="round"/>
<path d="M7.11295 10.4351V10.9991C7.11295 11.8884 7.83384 12.6093 8.72311 12.6093H12.8397C13.7289 12.6093 14.4498 11.8884 14.4498 10.9991V10.4351M14.1216 12.6093H7.44113C5.99798 12.6093 4.82812 13.7791 4.82812 15.2223V18.6213C4.82812 20.0644 5.99798 21.2343 7.44113 21.2343H14.1216C15.5647 21.2343 16.7346 20.0644 16.7346 18.6213V15.2223C16.7346 13.7791 15.5647 12.6093 14.1216 12.6093Z" stroke="black" stroke-width="1.03125" stroke-miterlimit="10" stroke-linejoin="round"/>
<path d="M2.57812 14.8737H1.59206C0.997547 14.8737 0.515625 15.3556 0.515625 15.9502V17.8936C0.515625 18.4881 0.997547 18.97 1.59206 18.97H2.57812M18.9846 14.8737H19.9707C20.5652 14.8737 21.0471 15.3556 21.0471 15.9502V17.8936C21.0471 18.4881 20.5652 18.97 19.9707 18.97H18.9846M14.1216 10.3594H7.44112C4.75964 10.3594 2.57812 12.5409 2.57812 15.2224V18.6214C2.57812 21.3028 4.75964 23.4844 7.44112 23.4844H14.1216C16.8031 23.4844 18.9846 21.3028 18.9846 18.6214V15.2224C18.9846 12.5409 16.8031 10.3594 14.1216 10.3594Z" stroke="black" stroke-width="1.03125" stroke-miterlimit="10" stroke-linejoin="round"/>
</svg>
