<svg width="40" height="40" viewBox="0 0 40 40" fill="none" xmlns="http://www.w3.org/2000/svg">
<path d="M23.2847 13.8281L25.6418 11.7608H39.1404V0.859375H23.2847V13.8281Z" stroke="#33CCCC" stroke-width="1.71875" stroke-miterlimit="10" stroke-linecap="round" stroke-linejoin="round"/>
<path d="M39.1404 6.5186L38.0327 5.37586C36.8167 4.12149 34.8688 3.93844 33.4404 4.94438L30.9637 6.6886C29.9927 7.37242 28.6704 7.2586 27.8306 6.41875C26.8769 5.465 25.3306 5.465 24.3769 6.41875L23.2847 7.51094M17.9688 12.5781V17.2656" stroke="#33CCCC" stroke-width="1.71875" stroke-miterlimit="10" stroke-linejoin="round"/>
<path d="M19.6875 30.9048C18.7383 31.854 17.1992 31.854 16.25 30.9048" stroke="#33CCCC" stroke-width="1.71875" stroke-miterlimit="10" stroke-linecap="round" stroke-linejoin="round"/>
<path d="M13.5156 28.23C14.4649 28.23 15.2344 27.4605 15.2344 26.5112C15.2344 25.562 14.4649 24.7925 13.5156 24.7925C12.5664 24.7925 11.7969 25.562 11.7969 26.5112C11.7969 27.4605 12.5664 28.23 13.5156 28.23Z" stroke="#33CCCC" stroke-width="1.71875" stroke-miterlimit="10" stroke-linejoin="round"/>
<path d="M22.4219 28.23C23.3711 28.23 24.1406 27.4605 24.1406 26.5112C24.1406 25.562 23.3711 24.7925 22.4219 24.7925C21.4726 24.7925 20.7031 25.562 20.7031 26.5112C20.7031 27.4605 21.4726 28.23 22.4219 28.23Z" stroke="#33CCCC" stroke-width="1.71875" stroke-miterlimit="10" stroke-linejoin="round"/>
<path d="M17.9688 12.5781C19.0043 12.5781 19.8438 11.7387 19.8438 10.7031C19.8438 9.66759 19.0043 8.82812 17.9688 8.82812C16.9332 8.82812 16.0938 9.66759 16.0938 10.7031C16.0938 11.7387 16.9332 12.5781 17.9688 12.5781Z" stroke="#F8FAFC" stroke-width="1.71875" stroke-miterlimit="10" stroke-linecap="round" stroke-linejoin="round"/>
<path d="M11.8549 17.3916V18.3317C11.8549 19.8138 13.0564 21.0153 14.5385 21.0153H21.3995C22.8816 21.0153 24.083 19.8138 24.083 18.3317V17.3916M23.536 21.0153H12.4019C9.99664 21.0153 8.04688 22.965 8.04688 25.3703V31.0353C8.04688 33.4405 9.99664 35.3903 12.4019 35.3903H23.536C25.9412 35.3903 27.891 33.4405 27.891 31.0353V25.3703C27.891 22.965 25.9412 21.0153 23.536 21.0153Z" stroke="#F8FAFC" stroke-width="1.71875" stroke-miterlimit="10" stroke-linejoin="round"/>
<path d="M4.29687 24.7895H2.65344C1.66258 24.7895 0.859375 25.5927 0.859375 26.5836V29.8227C0.859375 30.8135 1.66258 31.6167 2.65344 31.6167H4.29687M31.641 24.7895H33.2844C34.2753 24.7895 35.0785 25.5927 35.0785 26.5836V29.8227C35.0785 30.8135 34.2753 31.6167 33.2844 31.6167H31.641M23.536 17.2656H12.4019C7.93273 17.2656 4.29687 20.9016 4.29687 25.3706V31.0356C4.29687 35.5047 7.93273 39.1406 12.4019 39.1406H23.536C28.0052 39.1406 31.641 35.5047 31.641 31.0356V25.3706C31.641 20.9016 28.0052 17.2656 23.536 17.2656Z" stroke="#F8FAFC" stroke-width="1.71875" stroke-miterlimit="10" stroke-linejoin="round"/>
</svg>
